# xmcd
#
# Track frame offsets:
#	150
#	15995
#	29642
#	42098
#	55144
#	66102
#	76029
#	88757
#	99365
#	112852
#	124717
#	135656
#
# Disc length: 1954 seconds
#
# Revision: 0
# Processed by: cddbd v1.5PL3 Copyright (c) Steve Scherf et al.
# Submitted via: audiograbber 1.83.01
#
DISCID=8b07a00c
DTITLE=La Nobleza de Aguililla - La Recompensa
DYEAR=2003
DGENRE=Latin
TTITLE0=Caminos de Michoacan
TTITLE1=Juan Ramos
TTITLE2=Era Cabron el Viejo
TTITLE3=Barrio Alegre
TTITLE4=La Vueltecita
TTITLE5=Mi Casa Nueva
TTITLE6=Laurita Garza
TTITLE7=La Recompensa
TTITLE8=El Albanil
TTITLE9=El Chuma
TTITLE10=Joven Divana
TTITLE11=La Mulilla
EXTD=
EXTT0=
EXTT1=
EXTT2=
EXTT3=
EXTT4=
EXTT5=
EXTT6=
EXTT7=
EXTT8=
EXTT9=
EXTT10=
EXTT11=
PLAYORDER=
